{"title":"Mr Robot S02E05 eps2 3 logic-b0mb h 1080p WEB-DL HEVC DD5.1 x265","uid":15492672,"size":896674200,"categoryP":"video","categoryS":"hd___tv_shows","magnet":"?xt=urn:btih:b02c1a40930464e08cb3c03bf0f1af3d3eaea459&amp;dn=Mr+Robot+S02E05+eps2+3+logic-b0mb+h+1080p+WEB-DL+HEVC+DD5.1+x265&amp;tr=udp%3A%2F%2Ftracker.leechers-paradise.org%3A6969&amp;tr=udp%3A%2F%2Fzer0day.ch%3A1337&amp;tr=udp%3A%2F%2Fopen.demonii.com%3A1337&amp;tr=udp%3A%2F%2Ftracker.coppersurfer.tk%3A6969&amp;tr=udp%3A%2F%2Fexodus.desync.com%3A6969","seeders":8,"leechers":0,"uploader":"nayhtut","files":1,"time":1470390176,"description":"[Screenshots]\r\n \nhttps://s32.postimg.org/712fmegyt/Mr_Robot_S02_E05_eps2_3_logic_b0mb_hc_1080p_WEB_D.jpg \nhttps://s32.postimg.org/c0zvucmlh/Mr_Robot_S02_E05_eps2_3_logic_b0mb_hc_1080p_WEB_D.jpg \nhttps://s32.postimg.org/k7wgzo21x/Mr_Robot_S02_E05_eps2_3_logic_b0mb_hc_1080p_WEB_D.jpg\r\n\r\n\r\nSource:  Mr Robot S02E05 eps2 3 logic-b0mb hc 1080p WEB-DL DD5 1 H264-NTb  (1.98 GB)\r\n\r\n\r\n__--__--__--__--__--__--__--__--__--__--__--__--__--\r\n\r\n\r\nComplete name                            : Mr.Robot.S02E05.eps2.3.logic-b0mb.hc.1080p.WEB-DL.HEVC.DD5.1.x265.mkv\r\nFormat                                   : Matroska\r\nFormat version                           : Version 4 / Version 2\r\nFile size                                : 855 MiB\r\nDuration                                 : 51mn 28s\r\nOverall bit rate                         : 2 323 Kbps\r\nWriting application                      : Lavf57.25.100\r\nWriting library                          : Lavf57.25.100\r\n\r\nVideo\r\n\r\nID                                       : 1\r\nFormat                                   : V_MPEGH/ISO/HEVC\r\nCodec ID                                 : V_MPEGH/ISO/HEVC\r\nDuration                                 : 51mn 28s\r\nBit rate                                 : 1 892 Kbps\r\nWidth                                    : 1 920 pixels\r\nHeight                                   : 1 080 pixels\r\nDisplay aspect ratio                     : 16:9\r\nFrame rate                               : 25.000 fps\r\nBits/(Pixel*Frame)                       : 0.037\r\nStream size                              : 697 MiB (81%)\r\nWriting library                          : Lavc57.48.101 libx265\r\nLanguage                                 : English\r\nDefault                                  : Yes\r\nForced                                   : No\r\nDURATION                                 : 00:51:28.451000000\r\nNUMBER_OF_FRAMES                         : 74048\r\nNUMBER_OF_BYTES                          : 1975434749\r\n_STATISTICS_WRITING_APP                  : mkvmerge v8.3.0 ('Over the Horizon') 64bit\r\n_STATISTICS_WRITING_DATE_UTC             : 2016-08-04 13:47:44\r\n_STATISTICS_TAGS                         : BPS DURATION NUMBER_OF_FRAMES NUMBER_OF_BYTES\r\n\r\nAudio\r\n\r\nID                                       : 2\r\nFormat                                   : AC-3\r\nFormat/Info                              : Audio Coding 3\r\nMode extension                           : CM (complete main)\r\nFormat settings, Endianness              : Big\r\nCodec ID                                 : A_AC3\r\nDuration                                 : 51mn 28s\r\nBit rate mode                            : Constant\r\nBit rate                                 : 384 Kbps\r\nChannel(s)                               : 6 channels\r\nChannel positions                        : Front: L C R, Side: L R, LFE\r\nSampling rate                            : 48.0 KHz\r\nBit depth                                : 16 bits\r\nCompression mode                         : Lossy\r\nStream size                              : 141 MiB (17%)\r\nWriting library                          : Lavc57.24.102 ac3\r\nLanguage                                 : English\r\nDefault                                  : Yes\r\nForced                                   : No\r\nDURATION                                 : 00:51:28.447000000\r\nNUMBER_OF_FRAMES                         : 96511\r\nNUMBER_OF_BYTES                          : 148240896\r\n_STATISTICS_WRITING_APP                  : mkvmerge v8.3.0 ('Over the Horizon') 64bit\r\n_STATISTICS_WRITING_DATE_UTC             : 2016-08-04 13:47:44\r\n_STATISTICS_TAGS                         : BPS DURATION NUMBER_OF_FRAMES NUMBER_OF_BYTES\r\n\r\nText\r\n\r\nID                                       : 3\r\nFormat                                   : ASS\r\nCodec ID                                 : S_TEXT/ASS\r\nCodec ID/Info                            : Advanced Sub Station Alpha\r\nCompression mode                         : Lossless\r\nWriting library                          : Lavc57.48.101 ssa\r\nLanguage                                 : English\r\nDefault                                  : Yes\r\nForced                                   : No\r\nDURATION                                 : 00:51:01.669000000\r\nNUMBER_OF_FRAMES                         : 829\r\nNUMBER_OF_BYTES                          : 23553\r\n_STATISTICS_WRITING_APP                  : mkvmerge v8.3.0 ('Over the Horizon') 64bit\r\n_STATISTICS_WRITING_DATE_UTC             : 2016-08-04 13:47:44\r\n_STATISTICS_TAGS                         : BPS DURATION NUMBER_OF_FRAMES NUMBER_OF_BYTES\r\n\r\n\r\n__--__--__--__--__--__--__--__--__--__--__--__--__--\r\n\r\n\r\nIMDb: http://www.imdb.com/title/tt4158110\r\n\r\n\r\n__--__--__--__--__--__--__--__--__--__--__--__--__--\r\n\r\n\r\nAfter adding torrent with magnet link,\r\n\r\nplease add this  following trackers list to the torrent for better seeds.\r\n\r\n\r\nudp://tracker.coppersurfer.tk:6969/announce\r\n\r\nudp://tracker.opentrackr.org:1337/announce\r\n \nhttp://tracker.baravik.org:6970/announce\r\n \nhttp://tracker2.wasabii.com.tw:6969/announce\r\n\r\nudp://9.rarbg.me:2710/announce\r\n\r\n\r\n__--__--__--__--__--__--__--__--__--__--__--__--__--\r\n\r\n\r\nEnjoy!","torrent":{"xt":"urn:btih:b02c1a40930464e08cb3c03bf0f1af3d3eaea459","amp;dn":"Mr+Robot+S02E05+eps2+3+logic-b0mb+h+1080p+WEB-DL+HEVC+DD5.1+x265","amp;tr":["udp%3A%2F%2Ftracker.leechers-paradise.org%3A6969","udp%3A%2F%2Fzer0day.ch%3A1337","udp%3A%2F%2Fopen.demonii.com%3A1337","udp%3A%2F%2Ftracker.coppersurfer.tk%3A6969","udp%3A%2F%2Fexodus.desync.com%3A6969"],"infoHash":"b02c1a40930464e08cb3c03bf0f1af3d3eaea459","infoHashBuffer":{"type":"Buffer","data":[176,44,26,64,147,4,100,224,140,179,192,59,240,241,175,61,62,174,164,89]},"announce":[],"urlList":[]}}